<svg width="11" height="14" viewBox="0 0 11 14" fill="none" xmlns="http://www.w3.org/2000/svg">
<path fill-rule="evenodd" clip-rule="evenodd" d="M1.5 3.75C1.5 1.67893 3.17893 0 5.25 0C7.32107 0 9 1.67893 9 3.75V5.25C9.82843 5.25 10.5 5.92157 10.5 6.75V9.25C10.5 11.4591 8.70914 13.25 6.5 13.25H4C1.79086 13.25 0 11.4591 0 9.25V6.75C0 5.92157 0.671573 5.25 1.5 5.25L1.5 3.75ZM7.5 3.75V5.25H3V3.75C3 2.50736 4.00736 1.5 5.25 1.5C6.49264 1.5 7.5 2.50736 7.5 3.75ZM4.5 8.5C4.5 8.08579 4.83579 7.75 5.25 7.75C5.66421 7.75 6 8.08579 6 8.5C6 8.82655 5.7913 9.10436 5.5 9.20732V10C5.5 10.1381 5.38807 10.25 5.25 10.25C5.11193 10.25 5 10.1381 5 10V9.20732C4.7087 9.10436 4.5 8.82655 4.5 8.5Z" fill="#A6A6A6"/>
</svg>
