<svg width="38" height="25" viewBox="0 0 38 25" fill="none" xmlns="http://www.w3.org/2000/svg">
<path d="M23.8866 4.35547H13.9154V20.6414H23.8866V4.35547Z" fill="#FF5F00"/>
<path d="M14.9425 12.5001C14.9413 10.9319 15.2968 9.38395 15.9821 7.97343C16.6674 6.56291 17.6646 5.32676 18.8982 4.35853C17.3703 3.15779 15.5355 2.41112 13.6033 2.20386C11.6712 1.9966 9.71968 2.33711 7.9719 3.18647C6.22411 4.03584 4.75055 5.35979 3.71961 7.00701C2.68868 8.65424 2.14197 10.5583 2.14197 12.5015C2.14197 14.4448 2.68868 16.3488 3.71961 17.996C4.75055 19.6432 6.22411 20.9672 7.9719 21.8166C9.71968 22.6659 11.6712 23.0064 13.6033 22.7992C15.5355 22.5919 17.3703 21.8452 18.8982 20.6445C17.6642 19.676 16.6668 18.4394 15.9815 17.0283C15.2961 15.6172 14.9408 14.0688 14.9425 12.5001V12.5001Z" fill="#EB001B"/>
<path d="M34.6663 18.9184V18.5847H34.8101V18.5156H34.4678V18.5847H34.603V18.9184H34.6663ZM35.3308 18.9184V18.5156H35.2273L35.1064 18.8033L34.9856 18.5156H34.882V18.9184H34.9568V18.6134L35.069 18.8752H35.1467L35.2589 18.6134V18.9184H35.3308Z" fill="#F79E1B"/>
<path d="M35.656 12.5C35.6559 14.4434 35.1091 16.3475 34.078 17.9948C33.0468 19.6421 31.5731 20.966 29.8251 21.8153C28.077 22.6645 26.1254 23.0048 24.1931 22.7972C22.2608 22.5897 20.426 21.8427 18.8982 20.6415C20.1313 19.6724 21.1282 18.436 21.8137 17.0254C22.4992 15.6148 22.8554 14.0669 22.8554 12.4986C22.8554 10.9302 22.4992 9.38235 21.8137 7.97176C21.1282 6.56116 20.1313 5.32467 18.8982 4.35558C20.426 3.15446 22.2608 2.40743 24.1931 2.19987C26.1254 1.99231 28.077 2.3326 29.8251 3.18185C31.5731 4.03109 33.0468 5.35502 34.078 7.0023C35.1091 8.64958 35.6559 10.5537 35.656 12.4971V12.5Z" fill="#F79E1B"/>
</svg>
