<svg width="47" height="13" viewBox="0 0 47 13" fill="none" xmlns="http://www.w3.org/2000/svg">
<path fill-rule="evenodd" clip-rule="evenodd" d="M4.31542 0.00217222C4.73233 -0.000321914 5.97138 -0.111917 6.49621 1.6594C6.84975 2.85259 7.41291 4.80707 8.18569 7.52287H8.50042C9.32916 4.65969 9.89847 2.7052 10.2083 1.6594C10.7386 -0.130368 12.0644 0.0022073 12.5947 0.0022073L16.6861 0.0022124V12.7295H12.516V5.22908H12.2364L9.91178 12.7295H6.77433L4.44971 5.22352H4.17008V12.7295H0V0.0022124L4.31542 0.00217222ZM22.6743 0.0022124V7.50817H23.0069L25.8346 1.33607C26.3835 0.10781 27.5534 0.0022124 27.5534 0.0022124H31.5888V12.7295H27.3316V5.22352H26.999L24.2267 11.3956C23.6778 12.6183 22.4525 12.7295 22.4525 12.7295H18.4171V0.0022124H22.6743ZM46.3035 6.05029C45.7096 7.73307 43.8448 8.93823 41.7801 8.93823H37.3156V12.7295H33.2673V6.05029H46.3035Z" fill="#0F754E"/>
<path fill-rule="evenodd" clip-rule="evenodd" d="M41.9754 0.00219727H33.0551C33.2673 2.83572 35.7075 5.2614 38.2336 5.2614H46.5848C47.0667 2.90641 45.4077 0.00219727 41.9754 0.00219727Z" fill="url(#paint0_linear_3856_5)"/>
<defs>
<linearGradient id="paint0_linear_3856_5" x1="46.6667" y1="3.31046" x2="33.0551" y2="3.31046" gradientUnits="userSpaceOnUse">
<stop stop-color="#1F5CD7"/>
<stop offset="1" stop-color="#02AEFF"/>
</linearGradient>
</defs>
</svg>
