<svg width="44" height="14" viewBox="0 0 44 14" fill="none" xmlns="http://www.w3.org/2000/svg">
<path fill-rule="evenodd" clip-rule="evenodd" d="M10.9671 13.891H7.17074L4.32392 3.03016C4.1888 2.53056 3.90189 2.08889 3.47987 1.88072C2.42665 1.35759 1.26608 0.941262 0 0.731287V0.313146H6.11568C6.95973 0.313146 7.59277 0.941262 7.69828 1.67075L9.17537 9.505L12.9699 0.313146H16.6608L10.9671 13.891ZM18.7709 13.891H15.1855L18.1378 0.313146H21.7232L18.7709 13.891ZM26.3618 4.07461C26.4673 3.34332 27.1004 2.92518 27.8389 2.92518C28.9995 2.82019 30.2637 3.03016 31.3188 3.55148L31.9518 0.628116C30.8968 0.209975 29.7362 0 28.683 0C25.2031 0 22.6709 1.88073 22.6709 4.49094C22.6709 6.47666 24.4646 7.51929 25.7306 8.14741C27.1004 8.77372 27.6279 9.19186 27.5224 9.81816C27.5224 10.7576 26.4673 11.1758 25.4141 11.1758C24.148 11.1758 22.882 10.8626 21.7232 10.3395L21.0902 13.2647C22.3563 13.786 23.726 13.996 24.9921 13.996C28.894 14.0991 31.3188 12.2202 31.3188 9.40002C31.3188 5.84854 26.3618 5.64038 26.3618 4.07461ZM43.8667 13.891L41.0198 0.313146H37.962C37.3289 0.313146 36.6959 0.731287 36.4849 1.35759L31.2133 13.891H34.9041L35.6408 11.9071H40.1758L40.5978 13.891H43.8667ZM38.4896 3.96963L39.5428 9.08688H36.5905L38.4896 3.96963Z" fill="#172B85"/>
</svg>
